<?xml version="1.0" encoding="UTF-8"?>
<svg width="491px" height="140px" viewBox="0 0 491 140" version="1.1" xmlns="http://www.w3.org/2000/svg" xmlns:xlink="http://www.w3.org/1999/xlink">
    <g id="logo-modo">
    <rect width="140px" height="140px" fill="#34AEFF" x="0" y="0" ></rect>
    <g transform="translate(18.000000, 18.000000)">
    <path fill="#F9F9F9" d="M0 0v102h102.7z"></path>
    <path fill="#FFFFFF" d="M102.7 0v102H0z"></path>
    </g>
    </g>
    <g id="logo-eslint" transform="translate(166.000000, 0.000000)" fill-rule="nonzero">
        <path d="M48.2161775,51.8512345 L78.2835121,34.3289886 C79.0359404,33.8903371 79.9634387,33.8903371 80.7158671,34.3289886 L110.783823,51.8512345 C111.53563,52.289886 112,53.1001379 112,53.9774408 L112,89.0219326 C112,89.8986088 111.53563,90.7094874 110.783823,91.1487655 L80.7158671,108.671011 C79.9634387,109.109663 79.0359404,109.109663 78.2835121,108.671011 L48.2161775,91.1487655 C47.4637492,90.710114 47,89.8992355 47,89.0219326 L47,53.9774408 C47,53.1001379 47.46437,52.289886 48.2161775,51.8512345" id="Path" fill="#8080F2"></path>
        <path d="M158.016622,66.873125 L121.935076,3.953125 C120.624425,1.678125 118.203276,0 115.582599,0 L43.4182586,0 C40.7969577,0 38.3751849,1.678125 37.0645344,3.953125 L0.982987853,66.734375 C-0.327662618,69.01 -0.327662618,71.881875 0.982987853,74.1575 L37.0645344,136.561875 C38.3751849,138.836875 40.7969577,140 43.4182586,140 L115.581975,140 C118.202653,140 120.624425,138.871875 121.934452,136.59625 L158.015999,74.09 C159.327896,71.815625 159.327896,69.148125 158.016622,66.873125 M128.139154,97.129375 C128.139154,98.054375 127.583593,98.91 126.78361,99.373125 L80.8235496,125.9525 C80.02419,126.415 79.0228082,126.415 78.2234486,125.9525 L32.2278476,99.373125 C31.428488,98.91 30.8691856,98.055 30.8691856,97.129375 L30.8691856,43.97 C30.8691856,43.044375 31.4203821,42.189375 32.2203653,41.72625 L78.1785547,15.146875 C78.9779143,14.68375 79.9780492,14.68375 80.7774088,15.146875 L126.776127,41.72625 C127.576111,42.189375 128.139154,43.044375 128.139154,43.97 L128.139154,97.129375 L128.139154,97.129375 Z" id="Shape" fill="#4B32C3"></path>
    </g>
    <g id="logo-js" transform="translate(351.000000, 0.000000)" fill-rule="nonzero">
        <rect id="Rectangle" fill="#F7DF1E" x="0" y="0" width="140" height="140"></rect>
        <path d="M94.6380934,109.488314 C97.4805752,114.05699 101.178713,117.415143 107.719333,117.415143 C113.213902,117.415143 116.723885,114.711863 116.723885,110.976661 C116.723885,106.500594 113.117585,104.915228 107.069751,102.311171 L103.754642,100.911021 C94.1856259,96.8979952 87.8286808,91.8706876 87.8286808,81.242783 C87.8286808,71.452763 95.4063923,64 107.248946,64 C115.680074,64 121.741347,66.8884969 126.109227,74.4515079 L115.783111,80.9781879 C113.509574,76.9651616 111.056841,75.3842057 107.248946,75.3842057 C103.364893,75.3842057 100.903201,77.8096611 100.903201,80.9781879 C100.903201,84.8941959 103.367133,86.4795617 109.056577,88.9050171 L112.371685,90.3029614 C123.638575,95.059059 130,99.9077648 130,110.809084 C130,122.561518 120.621378,129 108.026205,129 C95.7110239,129 87.7547629,123.223006 83.86175,115.651175 L94.6380934,109.488314 Z M47.7942629,110.619458 C49.8774055,114.257641 51.7723934,117.333559 56.3284279,117.333559 C60.685108,117.333559 63.4335124,115.655585 63.4335124,109.13111 L63.4335124,64.7452763 L76.6939473,64.7452763 L76.6939473,109.307507 C76.6939473,122.823909 68.643609,128.975745 56.8928924,128.975745 C46.2755847,128.975745 40.1269539,123.56698 37,117.052427 L47.7942629,110.619458 Z" id="Shape" fill="#000000"></path>
    </g>
</svg>